
<svg xmlns="http://www.w3.org/2000/svg" style="width:0; height:0; visibility:hidden;">
    <symbol id="logo" viewBox="0 0 140 35.9">
        <g id="layer1">
            <path id="path10689" style="fill:#333333;fill-opacity:1;fill-rule:nonzero;stroke:none" d="m 104.3531,9.643 -4.1818,0 c -0.1529,0 -0.294,0.08 -0.374,0.209 l -3.4621,5.618 c -0.1717,0.279 -0.5768,0.279 -0.7485,0 l -3.4621,-5.618 c -0.08,-0.13 -0.2211,-0.209 -0.374,-0.209 l -4.1818,0 c -0.2428,0 -0.4392,0.197 -0.4392,0.439 l 0,15.74 c 0,0.243 0.1964,0.44 0.4392,0.44 l 3.6321,0 c 0.2428,0 0.4392,-0.197 0.4392,-0.44 l 0,-7.582 c 0,-0.437 0.5686,-0.606 0.8073,-0.241 l 3.4186,5.224 0.095,0 3.4421,-5.269 c 0.2387,-0.366 0.8073,-0.197 0.8073,0.24 l 0,7.628 c 0,0.243 0.197,0.44 0.4398,0.44 l 3.7026,0 c 0.2428,0 0.4392,-0.197 0.4392,-0.44 l 0,-15.74 c 0,-0.242 -0.1964,-0.439 -0.4392,-0.439 m -23.9213,8.434 c 0,-2.532 -2.0533,-4.585 -4.5852,-4.585 -2.5325,0 -4.5852,2.053 -4.5852,4.585 0,2.533 2.0527,4.585 4.5852,4.585 2.5319,0 4.5852,-2.052 4.5852,-4.585 m 4.3,-0.125 c 0,4.772 -3.8461,8.642 -8.9746,8.642 -1.4535,0 -2.7941,-0.316 -3.9777,-0.866 l -6.8219,10.176 -1.4653,-0.981 6.7678,-10.097 c -2.1156,-1.57 -3.4292,-4.046 -3.4292,-6.874 0,-4.772 3.8461,-8.641 8.974,-8.641 1.5464,0 2.9687,0.353 4.2053,0.97 l 6.8919,-10.281 1.4652,0.982 -6.8648,10.241 c 2.0004,1.576 3.2293,3.991 3.2293,6.729 m 50.6626,-2.255 c 0,-1.425 -0.9972,-2.184 -2.6589,-2.184 l -1.7204,0 c -0.2429,0 -0.4399,0.197 -0.4399,0.439 l 0,3.514 c 0,0.242 0.197,0.439 0.4399,0.439 l 1.7445,0 c 1.6376,0 2.6348,-0.855 2.6348,-2.208 m 4.6058,-0.166 c 0,3.917 -3.0152,5.983 -7.1459,5.983 l -1.8392,0 c -0.2429,0 -0.4399,0.196 -0.4399,0.439 l 0,3.869 c 0,0.243 -0.1969,0.44 -0.4392,0.44 l -3.7273,0 c -0.2422,0 -0.4392,-0.197 -0.4392,-0.44 l 0,-15.74 c 0,-0.242 0.197,-0.439 0.4392,-0.439 l 6.6832,0 c 4.2018,0 6.9083,2.16 6.9083,5.888 m -17.414,-5.888 -3.6262,0 c -0.1446,0 -0.2804,0.07 -0.3622,0.191 l -5.5012,7.997 c -0.2446,0.356 -0.8021,0.183 -0.8021,-0.248 l 0,-7.501 c 0,-0.242 -0.1964,-0.439 -0.4392,-0.439 l -3.6791,0 c -0.2428,0 -0.4398,0.197 -0.4398,0.439 l 0,15.74 c 0,0.243 0.197,0.44 0.4398,0.44 l 3.6268,0 c 0.1446,0 0.2799,-0.07 0.3616,-0.191 l 5.5013,-7.997 c 0.2446,-0.356 0.802,-0.183 0.802,0.248 l 0,7.5 c 0,0.243 0.1964,0.44 0.4392,0.44 l 3.6791,0 c 0.2428,0 0.4398,-0.197 0.4398,-0.44 l 0,-15.74 c 0,-0.242 -0.197,-0.439 -0.4398,-0.439 m -89.9724,0 -4.0083,0 c -0.1723,0 -0.3281,0.1 -0.3999,0.257 l -3.0552,6.702 c -0.1546,0.339 -0.6338,0.344 -0.7961,0.01 l -3.2469,-6.72 c -0.073,-0.151 -0.2276,-0.248 -0.3957,-0.248 l -4.1225,0 c -0.331,0 -0.5433,0.353 -0.388,0.646 l 6.0093,11.339 c 0.096,0.182 0.054,0.41 -0.1024,0.543 -0.4233,0.36 -0.8567,0.459 -1.1924,0.459 -0.4051,0 -0.9678,-0.09 -1.5088,-0.36 -0.2117,-0.104 -0.4669,-0.02 -0.5792,0.182 l -1.3847,2.55 c -0.1182,0.218 -0.032,0.487 0.1858,0.603 1.0231,0.541 2.1885,0.894 3.5956,0.894 2.5642,0 4.1071,-1.211 5.6265,-4.178 l 6.1545,-12.038 c 0.1494,-0.293 -0.063,-0.64 -0.3916,-0.64 m 33.2475,13.573 c 0.1564,-0.2 0.12,-0.488 -0.086,-0.635 l -2.7707,-1.973 c -0.1805,-0.129 -0.4321,-0.106 -0.5785,0.06 -0.922,1.045 -1.9122,1.723 -3.5004,1.723 -2.3267,0 -3.9648,-1.946 -3.9648,-4.439 0,-2.469 1.6381,-4.44 3.9648,-4.44 1.4489,0 2.5037,0.611 3.398,1.617 0.1506,0.17 0.4105,0.188 0.5904,0.05 l 2.6954,-2.088 c 0.1905,-0.147 0.231,-0.424 0.082,-0.613 -1.4588,-1.859 -3.5192,-3.166 -6.719,-3.166 -5.0327,0 -8.7599,3.798 -8.7599,8.641 0,5.01 3.8219,8.642 8.57,8.642 3.465,0 5.5406,-1.411 7.0788,-3.378 m -21.6317,-7.519 c 0,-1.425 -0.9972,-2.185 -2.6589,-2.185 l -1.721,0 c -0.2429,0 -0.4393,0.197 -0.4393,0.44 l 0,3.513 c 0,0.243 0.1964,0.44 0.4393,0.44 l 1.7445,0 c 1.6382,0 2.6354,-0.855 2.6354,-2.208 m 4.6058,-0.166 c 0,3.917 -3.0153,5.983 -7.1459,5.983 l -1.8398,0 c -0.2429,0 -0.4393,0.196 -0.4393,0.439 l 0,3.869 c 0,0.243 -0.1969,0.44 -0.4398,0.44 l -3.7267,0 c -0.2428,0 -0.4392,-0.197 -0.4392,-0.44 l 0,-15.74 c 0,-0.242 0.1964,-0.439 0.4392,-0.439 l 6.6826,0 c 4.2023,0 6.9089,2.16 6.9089,5.888 m -33.3069,10.042 c 0.2005,0.292 -0.01,0.689 -0.3622,0.689 l -4.4635,0 c -0.1458,0 -0.2822,-0.07 -0.3639,-0.194 l -3.7326,-5.513 c -0.1599,-0.237 -0.4998,-0.26 -0.6909,-0.05 l -1.1972,1.332 c -0.072,0.08 -0.1123,0.185 -0.1123,0.294 l 0,3.689 c 0,0.243 -0.1969,0.439 -0.4398,0.439 l -3.7261,0 c -0.2428,0 -0.4398,-0.196 -0.4398,-0.439 l 0,-15.74 c 0,-0.243 0.197,-0.44 0.4398,-0.44 l 3.7261,0 c 0.2429,0 0.4398,0.197 0.4398,0.44 l 0,5.106 c 0,0.409 0.5098,0.596 0.7744,0.284 l 4.8157,-5.674 c 0.083,-0.1 0.2058,-0.156 0.3351,-0.156 l 4.2842,0 c 0.378,0 0.5797,0.447 0.3298,0.73 l -5.4224,6.159 c -0.1329,0.151 -0.1465,0.374 -0.032,0.54 l 5.8382,8.502 z" />
        </g>
    </symbol>
    <symbol id="social-fb">
        <g id="g11611" transform="translate(20,20)">
            <circle id="circle11613"
                style="opacity:1;fill:#4f67a4;fill-opacity:1;stroke:none;stroke-width:3;stroke-linecap:round;stroke-linejoin:round;stroke-miterlimit:4;stroke-dasharray:none;stroke-dashoffset:0;stroke-opacity:1"
                r="20"
                cy="0"
                cx="0" />
            <path id="path11615" style="fill:#ffffff;fill-opacity:1"
                d="m -2.3968,-2.912 -0.018,1.32 -3.1977,0.05 0.014,3.949 3.2,0 0,6.39 4,0 0,-6.394 4,-0.03 0.011,-3.971 -4.0108,0 -0.01,-1.233 c 0.01,-1.466 1.2578,-1.97 2.7204,-1.966 l 1.2894,0 0,-4 -2.7426,0.02 c -3.5468,-0.02 -5.2603,1.981 -5.259,5.86 z" />
          </g>
    </symbol>
    <symbol id="social-vk">
            <g id="layer1" transform="translate(20,20)">
                <circle id="circle11607"
                   style="opacity:1;fill:#4f67a4;fill-opacity:1;stroke:none;stroke-width:3;stroke-linecap:round;stroke-linejoin:round;stroke-miterlimit:4;stroke-dasharray:none;stroke-dashoffset:0;stroke-opacity:1"
                   cx="0"
                   cy="0"
                   r="20" />
                <path id="path11609"
                   d="m 3.0936,-0.871 0,-0.05 c 1.4315,-0.403 2.5396,-1.749 2.5396,-3.678 0,-2.512 -2.124,-4.194 -4.3865,-4.201 l -7.942,0 0,17.6 7.2493,0 c 4.4329,0 6.1413,-2.992 6.1413,-5.459 0,-2.692 -1.4777,-3.768 -3.6017,-4.217 z m -5.7889,-4.729 0.9869,0 c 0.6464,0 1.7085,-0.09 2.2625,0.225 0.5541,0.314 0.8312,1.006 0.8312,1.634 0,0.583 -0.2309,1.423 -0.7388,1.737 -0.6003,0.449 -1.3852,0.404 -2.0778,0.404 l -1.2639,0 z M 1.57,5.241 C 0.9696,5.645 0.0461,5.595 -0.6927,5.6 l -2.0026,0 0,-4.008 2.1874,0 c 0.6465,0 1.4313,0 1.9855,0.314 0.5541,0.314 0.9697,0.772 0.9697,1.445 0,0.718 -0.3233,1.531 -0.8773,1.89 z"
                   style="fill:#ffffff;fill-opacity:1" />
              </g>
    <symbol id="social-gp">
            <g id="g11617" transform="translate(20,20)">
                <circle id="circle11607-5"
                   style="opacity:1;fill:#dd5044;fill-opacity:1;stroke:none;stroke-width:3;stroke-linecap:round;stroke-linejoin:round;stroke-miterlimit:4;stroke-dasharray:none;stroke-dashoffset:0;stroke-opacity:1"
                   cx="0"
                   cy="0"
                   r="20" />
                <path id="path8116"
                    style="fill:#ffffff"
                    d="m -6.7557529,-9.9976088 c -0.62587,0 -1.26133,0 -1.62695,0.0625 -1.6595001,0.24375 -3.0942701,0.824531 -4.5253901,1.832032 -0.60138,0.422499 -1.76866,1.5875 -2.19141,2.1875 -1.00587,1.43 -1.58545,2.864843 -1.83008,4.527343 -0.127,0.86125001 -0.0765,2.4925 0.10352,3.34375 0.92775,4.4062495 4.44469,7.5560935 8.9609401,8.0273435 0.407,0.0375 2.06715,0.0016 2.53515,-0.08594 l 0,0.01172 c 1.50475,-0.2375 2.75177,-0.704218 3.86914,-1.449218 2.62838,-1.751251 4.07696,-4.679454 4.08008,-8.25195349 5e-4,-0.6475 -0.11642,-1.90109301 -0.20117,-2.12109301 l -0.0449,-0.09961 -4.69336,0 -4.69141,0.01367 0,2.00195301 0,1.99999999 2.6875,0.01172 2.69336,0 -0.0312,0.138672 c -0.40737,1.7624995 -1.66206,3.0570305 -3.47656,3.5820305 -0.67938,0.19875 -1.16641,0.250703 -2.06641,0.220703 -0.6625,-0.025 -0.89429,-0.0507 -1.2793,-0.158203 -2.7848701,-0.775 -4.6606701,-3.5330465 -4.3574201,-6.40429649 0.17713,-1.67625001 1.05128,-3.21062501 2.41016,-4.23437501 2.0223701,-1.52625 4.9364501,-1.5225 6.8457001,0 0.20475,0.16125 0.39036,0.2875 0.41211,0.28125 0.0213,0 0.6835,-0.655 1.46875,-1.4375 l 1.42578,-1.423828 -0.13672,-0.09961 c -0.83844,-0.704997 -1.40418,-1.087966 -2.19343,-1.480466 -0.80525,-0.4025 -1.60084,-0.669531 -2.57421,-0.863281 -0.32638,-0.0625 -0.94261,-0.09883 -1.56836,-0.111328 l -0.004,-0.02149 z m 16.7558599,3.998047 0,4 -3.9999999,0 0,3 3.9999999,0 0,3.9999995 3,0 0,-3.9999995 4,0 0,-3 -4,0 0,-4 -3,0 z" />
              </g>
        </g>
    </symbol>
</svg>
