<?xml version="1.0" encoding="UTF-8"?>
<svg xmlns="http://www.w3.org/2000/svg"
    xmlns:svg="http://www.w3.org/2000/svg"
    xmlns:xlink="http://www.w3.org/1999/xlink">
    <symbol id="logo" viewBox="0 0 139.9999 35.904001">
        <path fill="#333" d="M104.3531 9.643h-4.1818c-.1529 0-.294.08-.374.209l-3.4621 5.618c-.1717.279-.5768.279-.7485 0l-3.4621-5.618c-.08-.13-.2211-.209-.374-.209h-4.1818c-.2428 0-.4392.197-.4392.439v15.74c0 .243.1964.44.4392.44h3.6321c.2428 0 .4392-.197.4392-.44V18.24c0-.437.5686-.606.8073-.241l3.4186 5.224h.095l3.4421-5.269c.2387-.366.8073-.197.8073.24v7.628c0 .243.197.44.4398.44h3.7026c.2428 0 .4392-.197.4392-.44v-15.74c0-.242-.1964-.439-.4392-.439m-23.9213 8.434c0-2.532-2.0533-4.585-4.5852-4.585-2.5325 0-4.5852 2.053-4.5852 4.585 0 2.533 2.0527 4.585 4.5852 4.585 2.5319 0 4.5852-2.052 4.5852-4.585m4.3-.125c0 4.772-3.8461 8.642-8.9746 8.642-1.4535 0-2.7941-.316-3.9777-.866l-6.8219 10.176-1.4653-.981 6.7678-10.097c-2.1156-1.57-3.4292-4.046-3.4292-6.874 0-4.772 3.8461-8.641 8.974-8.641 1.5464 0 2.9687.353 4.2053.97L86.9018 0l1.4652.982-6.8648 10.241c2.0004 1.576 3.2293 3.991 3.2293 6.729m50.6626-2.255c0-1.425-.9972-2.184-2.6589-2.184h-1.7204c-.2429 0-.4399.197-.4399.439v3.514c0 .242.197.439.4399.439h1.7445c1.6376 0 2.6348-.855 2.6348-2.208m4.6058-.166c0 3.917-3.0152 5.983-7.1459 5.983h-1.8392c-.2429 0-.4399.196-.4399.439v3.869c0 .243-.1969.44-.4392.44h-3.7273c-.2422 0-.4392-.197-.4392-.44v-15.74c0-.242.197-.439.4392-.439h6.6832c4.2018 0 6.9083 2.16 6.9083 5.888m-17.414-5.888h-3.6262c-.1446 0-.2804.07-.3622.191l-5.5012 7.997c-.2446.356-.8021.183-.8021-.248v-7.501c0-.242-.1964-.439-.4392-.439h-3.6791c-.2428 0-.4398.197-.4398.439v15.74c0 .243.197.44.4398.44h3.6268c.1446 0 .2799-.07.3616-.191l5.5013-7.997c.2446-.356.802-.183.802.248v7.5c0 .243.1964.44.4392.44h3.6791c.2428 0 .4398-.197.4398-.44v-15.74c0-.242-.197-.439-.4398-.439m-89.9724 0h-4.0083c-.1723 0-.3281.1-.3999.257l-3.0552 6.702c-.1546.339-.6338.344-.7961.01l-3.2469-6.72c-.073-.151-.2276-.248-.3957-.248h-4.1225c-.331 0-.5433.353-.388.646l6.0093 11.339c.096.182.054.41-.1024.543-.4233.36-.8567.459-1.1924.459-.4051 0-.9678-.09-1.5088-.36-.2117-.104-.4669-.02-.5792.182l-1.3847 2.55c-.1182.218-.032.487.1858.603 1.0231.541 2.1885.894 3.5956.894 2.5642 0 4.1071-1.211 5.6265-4.178l6.1545-12.038c.1494-.293-.063-.64-.3916-.64M65.861 23.217c.1564-.2.12-.488-.086-.635l-2.7707-1.973c-.1805-.129-.4321-.106-.5785.06-.922 1.045-1.9122 1.723-3.5004 1.723-2.3267 0-3.9648-1.946-3.9648-4.439 0-2.469 1.6381-4.44 3.9648-4.44 1.4489 0 2.5037.611 3.398 1.617.1506.17.4105.188.5904.05l2.6954-2.088c.1905-.147.231-.424.082-.613-1.4588-1.859-3.5192-3.166-6.719-3.166-5.0327 0-8.7599 3.798-8.7599 8.641 0 5.01 3.8219 8.642 8.57 8.642 3.465 0 5.5406-1.411 7.0788-3.378m-21.6317-7.519c0-1.425-.9972-2.185-2.6589-2.185h-1.721c-.2429 0-.4393.197-.4393.44v3.513c0 .243.1964.44.4393.44h1.7445c1.6382 0 2.6354-.855 2.6354-2.208m4.6058-.166c0 3.917-3.0153 5.983-7.1459 5.983h-1.8398c-.2429 0-.4393.196-.4393.439v3.869c0 .243-.1969.44-.4398.44h-3.7267c-.2428 0-.4392-.197-.4392-.44v-15.74c0-.242.1964-.439.4392-.439h6.6826c4.2023 0 6.9089 2.16 6.9089 5.888M15.5283 25.575c.2005.292-.01.689-.3622.689h-4.4635c-.1458 0-.2822-.07-.3639-.194l-3.7326-5.513c-.1599-.237-.4998-.26-.6909-.05L4.718 21.839c-.072.08-.1123.185-.1123.294v3.689c0 .243-.1969.439-.4398.439H.4398C.197 26.261 0 26.065 0 25.822v-15.74c0-.243.197-.44.4398-.44h3.7261c.2429 0 .4398.197.4398.44v5.106c0 .409.5098.596.7744.284l4.8157-5.674c.083-.1.2058-.156.3351-.156h4.2842c.378 0 .5797.447.3298.73l-5.4224 6.159c-.1329.151-.1465.374-.032.54l5.8382 8.502z"/>
    </symbol>
    <symbol id="social-fb" viewBox="0 0 40 40">
       <circle cx="20" cy="20" r="20" fill="#4f67a4"/>
       <path fill="#fff" d="M17.01522 16.874717l-.018 1.121-2.9971.05.014 3.949 2.9604.02c.033.03.047 4.182.039 6.987h4v-7.005l3.9892-.03.011-3.971h-4l-.01-1.034c.01-1.466 1.0443-1.97 2.5069-1.966h1.5v-4l-2.9532.02c-3.5468-.02-5.0468 1.981-5.0455 5.86z"/>
    </symbol>
    <symbol id="social-vk" viewBox="0 0 40 40">
        <circle cx="20" cy="20" r="20" fill="#4f67a4"/>
          <path fill="#fff" d="M23.78902 19.128717v-.05c1.4315-.403 2.5396-1.749 2.5396-3.678 0-2.512-2.124-3.902-4.3865-3.902h-7.942v17h7.2493c4.4329 0 6.1413-2.691 6.1413-5.158 0-2.692-1.4777-3.768-3.6017-4.217zm-5.7889-4.62h.9869c.6464 0 1.7085-.09 2.2625.225.5541.314.8312.897.8312 1.525 0 .583-.2309 1.527-.7388 1.841-.6003.449-1.3852.404-2.0778.404h-1.2639zm4.2653 10.636c-.6004.404-1.5239.354-2.2627.359h-2.0026v-4h2.1874c.6465 0 1.4313 0 1.9855.314.5541.314.9697.86.9697 1.533 0 .718-.3233 1.435-.8773 1.794z"/>
    </symbol>
    <symbol id="social-gp" viewBox="0 0 40 40">
        <circle cx="20" cy="20" r="20" fill="#dd5044"/>
          <path fill="#fff" d="M15.168 12.0223c-.4681 0-.9433 0-1.2168.05-1.2414.183-2.3143.617-3.3848 1.37-.4498.316-1.3225 1.189-1.6387 1.638-.7526 1.07-1.1862 2.142-1.3691 3.385-.095.645-.058 1.866.076 2.502.694 3.296 3.3248 5.654 6.7031 6.006.3045.03 1.5464 0 1.8965-.07v.01c1.1257-.177 2.0587-.527 2.8946-1.084 1.9661-1.31 3.0503-3.5 3.0527-6.172.0004-.484-.087-1.422-.1504-1.586l-.033-.08h-3.5117l-3.5098.01v2.994l2.0117.01h2.0137l-.023.104c-.3048 1.319-1.2442 2.286-2.6016 2.679-.5082.148-.8716.187-1.5449.164-.4956-.02-.6691-.04-.9571-.117-2.0832-.58-3.4866-2.642-3.2597-4.791.1324-1.254.7861-2.402 1.8027-3.168 1.5129-1.141 3.693-1.139 5.1211 0 .1533.121.2924.216.3086.211.016 0 .5103-.49 1.0977-1.076l1.0664-1.065-.1016-.08c-.6272-.528-1.0502-.814-1.6406-1.107-.6023-.302-1.1976-.5-1.9258-.645-.2441-.05-.7058-.08-1.1738-.09zM28 15.0013v3h-3v2h3v3h2v-3h3v-2h-3v-3h-2z"/>
    </symbol>
</svg>
