<?xml version="1.0" encoding="UTF-8" standalone="no"?>
<!-- Created with Inkscape (http://www.inkscape.org/) -->

<svg
   xmlns:dc="http://purl.org/dc/elements/1.1/"
   xmlns:cc="http://creativecommons.org/ns#"
   xmlns:rdf="http://www.w3.org/1999/02/22-rdf-syntax-ns#"
   xmlns:svg="http://www.w3.org/2000/svg"
   xmlns="http://www.w3.org/2000/svg"
   xmlns:sodipodi="http://sodipodi.sourceforge.net/DTD/sodipodi-0.dtd"
   xmlns:inkscape="http://www.inkscape.org/namespaces/inkscape"
   width="39.511082mm"
   height="10.132907mm"
   viewBox="0 0 139.9999 35.904001"
   id="svg5180"
   version="1.1"
   inkscape:version="0.91 r13725"
   sodipodi:docname="logo.svg">
  <defs
     id="defs5182" />
  <sodipodi:namedview
     id="base"
     pagecolor="#ffffff"
     bordercolor="#666666"
     borderopacity="1.0"
     inkscape:pageopacity="0.0"
     inkscape:pageshadow="2"
     inkscape:zoom="0.35"
     inkscape:cx="89.285663"
     inkscape:cy="103.66629"
     inkscape:document-units="px"
     inkscape:current-layer="layer1"
     showgrid="false"
     fit-margin-top="0"
     fit-margin-left="0"
     fit-margin-right="0"
     fit-margin-bottom="0"
     inkscape:window-width="1280"
     inkscape:window-height="751"
     inkscape:window-x="0"
     inkscape:window-y="1"
     inkscape:window-maximized="1" />
  <metadata
     id="metadata5185">
    <rdf:RDF>
      <cc:Work
         rdf:about="">
        <dc:format>image/svg+xml</dc:format>
        <dc:type
           rdf:resource="http://purl.org/dc/dcmitype/StillImage" />
        <dc:title></dc:title>
      </cc:Work>
    </rdf:RDF>
  </metadata>
  <g
     inkscape:label="Layer 1"
     inkscape:groupmode="layer"
     id="layer1"
     transform="translate(241.42852,-600.12449)">
    <path
       inkscape:connector-curvature="0"
       id="path10689"
       style="fill:#333333;fill-opacity:1;fill-rule:nonzero;stroke:none"
       d="m -137.07542,609.76749 -4.1818,0 c -0.1529,0 -0.294,0.08 -0.374,0.209 l -3.4621,5.618 c -0.1717,0.279 -0.5768,0.279 -0.7485,0 l -3.4621,-5.618 c -0.08,-0.13 -0.2211,-0.209 -0.374,-0.209 l -4.1818,0 c -0.2428,0 -0.4392,0.197 -0.4392,0.439 l 0,15.74 c 0,0.243 0.1964,0.44 0.4392,0.44 l 3.6321,0 c 0.2428,0 0.4392,-0.197 0.4392,-0.44 l 0,-7.582 c 0,-0.437 0.5686,-0.606 0.8073,-0.241 l 3.4186,5.224 0.095,0 3.4421,-5.269 c 0.2387,-0.366 0.8073,-0.197 0.8073,0.24 l 0,7.628 c 0,0.243 0.197,0.44 0.4398,0.44 l 3.7026,0 c 0.2428,0 0.4392,-0.197 0.4392,-0.44 l 0,-15.74 c 0,-0.242 -0.1964,-0.439 -0.4392,-0.439 m -23.9213,8.434 c 0,-2.532 -2.0533,-4.585 -4.5852,-4.585 -2.5325,0 -4.5852,2.053 -4.5852,4.585 0,2.533 2.0527,4.585 4.5852,4.585 2.5319,0 4.5852,-2.052 4.5852,-4.585 m 4.3,-0.125 c 0,4.772 -3.8461,8.642 -8.9746,8.642 -1.4535,0 -2.7941,-0.316 -3.9777,-0.866 l -6.8219,10.176 -1.4653,-0.981 6.7678,-10.097 c -2.1156,-1.57 -3.4292,-4.046 -3.4292,-6.874 0,-4.772 3.8461,-8.641 8.974,-8.641 1.5464,0 2.9687,0.353 4.2053,0.97 l 6.8919,-10.281 1.4652,0.982 -6.8648,10.241 c 2.0004,1.576 3.2293,3.991 3.2293,6.729 m 50.6626,-2.255 c 0,-1.425 -0.9972,-2.184 -2.6589,-2.184 l -1.7204,0 c -0.2429,0 -0.4399,0.197 -0.4399,0.439 l 0,3.514 c 0,0.242 0.197,0.439 0.4399,0.439 l 1.7445,0 c 1.6376,0 2.6348,-0.855 2.6348,-2.208 m 4.6058,-0.166 c 0,3.917 -3.0152,5.983 -7.1459,5.983 l -1.8392,0 c -0.2429,0 -0.4399,0.196 -0.4399,0.439 l 0,3.869 c 0,0.243 -0.1969,0.44 -0.4392,0.44 l -3.7273,0 c -0.2422,0 -0.4392,-0.197 -0.4392,-0.44 l 0,-15.74 c 0,-0.242 0.197,-0.439 0.4392,-0.439 l 6.6832,0 c 4.2018,0 6.9083,2.16 6.9083,5.888 m -17.414,-5.888 -3.6262,0 c -0.1446,0 -0.2804,0.07 -0.3622,0.191 l -5.5012,7.997 c -0.2446,0.356 -0.8021,0.183 -0.8021,-0.248 l 0,-7.501 c 0,-0.242 -0.1964,-0.439 -0.4392,-0.439 l -3.6791,0 c -0.2428,0 -0.4398,0.197 -0.4398,0.439 l 0,15.74 c 0,0.243 0.197,0.44 0.4398,0.44 l 3.6268,0 c 0.1446,0 0.2799,-0.07 0.3616,-0.191 l 5.5013,-7.997 c 0.2446,-0.356 0.802,-0.183 0.802,0.248 l 0,7.5 c 0,0.243 0.1964,0.44 0.4392,0.44 l 3.6791,0 c 0.2428,0 0.4398,-0.197 0.4398,-0.44 l 0,-15.74 c 0,-0.242 -0.197,-0.439 -0.4398,-0.439 m -89.9724,0 -4.0083,0 c -0.1723,0 -0.3281,0.1 -0.3999,0.257 l -3.0552,6.702 c -0.1546,0.339 -0.6338,0.344 -0.7961,0.01 l -3.2469,-6.72 c -0.073,-0.151 -0.2276,-0.248 -0.3957,-0.248 l -4.1225,0 c -0.331,0 -0.5433,0.353 -0.388,0.646 l 6.0093,11.339 c 0.096,0.182 0.054,0.41 -0.1024,0.543 -0.4233,0.36 -0.8567,0.459 -1.1924,0.459 -0.4051,0 -0.9678,-0.09 -1.5088,-0.36 -0.2117,-0.104 -0.4669,-0.02 -0.5792,0.182 l -1.3847,2.55 c -0.1182,0.218 -0.032,0.487 0.1858,0.603 1.0231,0.541 2.1885,0.894 3.5956,0.894 2.5642,0 4.1071,-1.211 5.6265,-4.178 l 6.1545,-12.038 c 0.1494,-0.293 -0.063,-0.64 -0.3916,-0.64 m 33.2475,13.573 c 0.1564,-0.2 0.12,-0.488 -0.086,-0.635 l -2.7707,-1.973 c -0.1805,-0.129 -0.4321,-0.106 -0.5785,0.06 -0.922,1.045 -1.9122,1.723 -3.5004,1.723 -2.3267,0 -3.9648,-1.946 -3.9648,-4.439 0,-2.469 1.6381,-4.44 3.9648,-4.44 1.4489,0 2.5037,0.611 3.398,1.617 0.1506,0.17 0.4105,0.188 0.5904,0.05 l 2.6954,-2.088 c 0.1905,-0.147 0.231,-0.424 0.082,-0.613 -1.4588,-1.859 -3.5192,-3.166 -6.719,-3.166 -5.0327,0 -8.7599,3.798 -8.7599,8.641 0,5.01 3.8219,8.642 8.57,8.642 3.465,0 5.5406,-1.411 7.0788,-3.378 m -21.6317,-7.519 c 0,-1.425 -0.9972,-2.185 -2.6589,-2.185 l -1.721,0 c -0.2429,0 -0.4393,0.197 -0.4393,0.44 l 0,3.513 c 0,0.243 0.1964,0.44 0.4393,0.44 l 1.7445,0 c 1.6382,0 2.6354,-0.855 2.6354,-2.208 m 4.6058,-0.166 c 0,3.917 -3.0153,5.983 -7.1459,5.983 l -1.8398,0 c -0.2429,0 -0.4393,0.196 -0.4393,0.439 l 0,3.869 c 0,0.243 -0.1969,0.44 -0.4398,0.44 l -3.7267,0 c -0.2428,0 -0.4392,-0.197 -0.4392,-0.44 l 0,-15.74 c 0,-0.242 0.1964,-0.439 0.4392,-0.439 l 6.6826,0 c 4.2023,0 6.9089,2.16 6.9089,5.888 m -33.3069,10.042 c 0.2005,0.292 -0.01,0.689 -0.3622,0.689 l -4.4635,0 c -0.1458,0 -0.2822,-0.07 -0.3639,-0.194 l -3.7326,-5.513 c -0.1599,-0.237 -0.4998,-0.26 -0.6909,-0.05 l -1.1972,1.332 c -0.072,0.08 -0.1123,0.185 -0.1123,0.294 l 0,3.689 c 0,0.243 -0.1969,0.439 -0.4398,0.439 l -3.7261,0 c -0.2428,0 -0.4398,-0.196 -0.4398,-0.439 l 0,-15.74 c 0,-0.243 0.197,-0.44 0.4398,-0.44 l 3.7261,0 c 0.2429,0 0.4398,0.197 0.4398,0.44 l 0,5.106 c 0,0.409 0.5098,0.596 0.7744,0.284 l 4.8157,-5.674 c 0.083,-0.1 0.2058,-0.156 0.3351,-0.156 l 4.2842,0 c 0.378,0 0.5797,0.447 0.3298,0.73 l -5.4224,6.159 c -0.1329,0.151 -0.1465,0.374 -0.032,0.54 l 5.8382,8.502 z" />
  </g>
</svg>
