<?xml version="1.0" encoding="UTF-8"?>
<svg xmlns="http://www.w3.org/2000/svg" viewBox="0 0 339.54291 404.75949">
  <path fill="#f5acac" d="M242.647 71.0372a12.592439 7.089916 68.732279 0 0-1.2978.5652 12.592439 7.089916 68.732279 0 0-.1481.1112c-1.2928.5179-13.9226 5.9444-13.9226 5.9444l9.4751 23.2597 13.7628-6.053a12.592439 7.089916 68.732279 0 0 1.5158-.5983 12.592439 7.089916 68.732279 0 0 .6575-15.3201 12.592439 7.089916 68.732279 0 0-10.0427-7.91z"/>
  <path fill="#9f6161" fill-rule="evenodd" d="M319.7927 72.4494l-20.7395 2.4349c9.0779 65.6017-31.9348 109.7455-84.7128 122.5666l2.7063 17.2064c72.5749-16.2956 110.2844-75.5035 102.746-142.2079z" style="line-height:normal;text-indent:0;text-align:start;text-decoration-line:none;text-decoration-style:solid;text-decoration-color:#000000;text-transform:none;block-progression:tb;isolation:auto;mix-blend-mode:normal" color="#000" font-family="sans-serif" white-space="normal" overflow="visible" solid-color="#000000"/>
  <path fill="#f5acac" d="M228.5678 177.1658c-.6058.1223-1.1519.3789-1.6251.7861-.058.054-.1149.1136-.172.172-1.6323.7036-9.7543 4.5322-9.7543 4.5322l19.8337 42.2845 9.5025-4.7488c.7236-.077 1.3667-.3503 1.9175-.8065 3.9309-3.334 2.3429-15.3126-3.5467-26.7545-5.0733-9.8551-11.8288-16.3221-16.1538-15.4638z"/>
  <path fill="#ffe5e5" fill-rule="evenodd" d="M110.9831 224.015l125.0209-36.6788-33.7007-8.1465-120.5824 29.9107z"/>
  <path fill="#9f6161" fill-rule="evenodd" d="M138.7481 155.3344c9.6115 18.3076 7.8049 28.0086 9.4971 43.8498.6008 7.6803 21.425 5.006 21.5116-2.3665.6019-17.2566-2.1893-31.0328-7.7861-50.0727z"/>
  <path fill="#f7bcbc" fill-rule="evenodd" d="M48.3768 110.6837l34.0911 88.1682L251.4772 140.26l-32.1117-96.3656z"/>
  <circle cx="184.00916" cy="118.15571" r="33.418617" fill="#f5acac" transform="rotate(-8.592)"/>
  <path fill="#f7bcbc" fill-rule="evenodd" d="M110.9831 224.015l125.0209-36.6788c13.0209 57.2303 15.4049 96.7798 15.4049 124.3721l-109.4556 11.2771c-6.059-42.4068-17.1663-62.0977-30.9702-98.9723z"/>
  <path fill="#ffe5e5" fill-rule="evenodd" d="M48.3768 110.6837L21.6032 98.0543l161.9824-62.5032 35.7799 8.3433z"/>
  <path fill="#f47c7c" fill-rule="evenodd" d="M48.3768 110.6837l34.0911 88.1682-28.753-4.4319-32.1117-96.3657zm62.6063 113.3313l-29.2622-14.9146c12.3955 31.2264 16.3345 78.1933 14.9723 118.5481l45.5037-4.6882c-2.0804-35.776-19.5575-76.7176-31.2138-98.9423z"/>
  <circle cx="74.449097" cy="143.37544" r="33.418617" fill="#f5acac" transform="rotate(-8.592)"/>
  <circle cx="76.682983" cy="146.92525" r="26.975157" fill="#ffe5e5" transform="rotate(-8.592)"/>
  <circle cx="184.58337" cy="122.46235" r="26.975157" fill="#ffe5e5" transform="rotate(-8.592)"/>
  <circle cx="182.67175" cy="124.40864" r="19.204311" fill="#9f6161" transform="rotate(-8.592)"/>
  <circle cx="191.86121" cy="118.15376" r="5.5356717" fill="#ffe5e5" transform="rotate(-8.592)"/>
  <circle cx="169.85242" cy="123.48188" r="2.5239375" fill="#ffe5e5" transform="rotate(-8.592)"/>
  <circle cx="74.867065" cy="148.5024" r="19.204311" fill="#9f6161" transform="rotate(-8.592)"/>
  <circle cx="84.056519" cy="142.24751" r="5.5356717" fill="#ffe5e5" transform="rotate(-8.592)"/>
  <circle cx="62.047733" cy="147.57564" r="2.5239375" fill="#ffe5e5" transform="rotate(-8.592)"/>
  <path fill="#9f6161" fill-rule="evenodd" d="M142.3769 135.6898l27.4005-9.4369c6.1692 26.6975-20.1745 28.5746-27.4005 9.4369z"/>
  <path fill="#f47c7c" d="M152.4078 138.9636c-2.4622.3756-4.8003 1.2646-6.7741 2.5756 5.7815 8.5095 15.8096 9.3282 21.2772 3.3751-2.4218-4.447-8.3315-6.8718-14.5031-5.9507z"/>
  <path fill="#f5acac" d="M45.1254 143.7094a12.592439 7.089916 68.732279 0 0-1.2976.565 12.592439 7.089916 68.732279 0 0-.148.1137c-1.293.518-13.9227 5.9444-13.9227 5.9444l9.4752 23.2598 13.7628-6.0532a12.592439 7.089916 68.732279 0 0 1.5158-.5981 12.592439 7.089916 68.732279 0 0 .6573-15.3202 12.592439 7.089916 68.732279 0 0-10.0427-7.9099z"/>
  <ellipse cx="-38.445713" cy="155.52333" fill="#f47c7c" transform="matrix(.8328 -.5536 .42636 .90455 0 0)" ry="12.527943" rx="7.2032709"/>
  <path fill="#f7bcbc" d="M145.034 58.9994a6.3323124 25.363058 70.115817 0 0-.4471-1.1816 6.3323124 25.363058 70.115817 0 0-.1394-.1198c-.3624-1.1915-4.5708-12.7195-4.5708-12.7195l-47.5426 17.317 4.8469 12.5177a6.3323124 25.363058 70.115817 0 0 .4058 1.4004 6.3323124 25.363058 70.115817 0 0 28.1153-4.1691 6.3323124 25.363058 70.115817 0 0 19.3306-13.0437z"/>
  <ellipse cx="98.767792" cy="-53.055424" fill="#ffe5e5" rx="6.8253484" ry="25.23485" transform="matrix(.67625 .73668 -.9312 .36448 0 0)"/>
  <path fill="#f7bcbc" d="M93.9338 219.1458c-.6105.096-1.1649.337-1.6552.7201-.06.053-.1198.1088-.1787.1656-1.6592.6374-9.9286 4.1365-9.9286 4.1365l18.1186 43.0473 9.6857-4.3632c.7258-.051 1.3795-.2954 1.9483-.7287 4.0617-3.1733 2.9564-15.2061-2.4688-26.8753-4.6731-10.051-11.1634-16.7843-15.5193-16.1004z"/>
  <ellipse cx="-21.646395" cy="256.19919" fill="#f47c7c" transform="matrix(.7879 -.6158 .42157 .9068 0 0)" ry="23.299494" rx="9.3322077"/>
  <path fill="#9f6161" fill-rule="evenodd" d="M84.0385 237.4113c-39.6313 10.5081-90.5439 30.8658-64.3151 110.9692l20.7772.9984C7.9252 271.819 63.6803 263.763 93.362 255.4247c2.9853-2.8878-1.0857-19.1866-9.3235-18.0137z" style="line-height:normal;text-indent:0;text-align:start;text-decoration-line:none;text-decoration-style:solid;text-decoration-color:#000000;text-transform:none;block-progression:tb;isolation:auto;mix-blend-mode:normal" color="#000" font-family="sans-serif" white-space="normal" overflow="visible" solid-color="#000000"/>
  <path fill="#f7bcbc" fill-rule="evenodd" d="M262.5976 19.4694c.96.192 15.7448 59.2163 15.7448 59.2163l61.2005-9.3258-7.5384-62.9998-21.171 1.6767 7.7265 44.0436-24.2894 4.2273-8.2479-42.6911z"/>
  <path fill="#ffe5e5" fill-rule="evenodd" d="M331.0626 0l-21.8423 1.419 1.7471 7.317 21.0798-1.9644zm-46.414 6.6606l-23.8092 7.0998 1.7496 5.8979 23.37-5.8979zm32.7091 38.443l-24.299 5.2416 1.3104 6.1152 24.3545-4.3125z"/>
  <path fill="#f7bcbc" fill-rule="evenodd" d="M108.22525 14.49645c-1.7156.1177-3.5918.5508-5.6465 1.2988l-.043.016-6.85941 3.1035-.043.024c-4.0627 2.2479-6.3707 5.1281-7.1523 8.3574-.7817 3.2293-.077 6.6527 1.3535 10.1055 2.8603 6.9055 8.691801 14.1708 13.09961 20.8691l2.0781-1.3672c-4.5027-6.8425-10.24561-14.0957-12.87891-20.4531-1.3166-3.1787-1.8386-6.0737-1.2344-8.5703.6033-2.4926 2.2944-4.7434 5.9239-6.7559l6.62501-2.9941c3.7693-1.3692 6.4967-1.4709 8.6152-.6992 2.1223.773 3.802 2.4706 5.334 5.1738 3.064 5.4065 5.2244 14.6218 8.6445 25.8301l2.3789-.7266c-3.3924-11.1174-5.4581-20.3285-8.8594-26.3301-1.7006-3.0007-3.8116-5.2506-6.6464-6.2832-1.4174-.5162-2.9738-.7153-4.6895-.5976zm8.6895 21.3926l-2.4844.1289.7324 14.1992 2.4844-.1289-.7324-14.1992zm-15.1778 2.625l-1.878913 1.6289 11.107413 12.8242 1.879-1.6289-11.1075-12.8242z" style="line-height:normal;text-indent:0;text-align:start;text-decoration-line:none;text-decoration-style:solid;text-decoration-color:#000000;text-transform:none;block-progression:tb;isolation:auto;mix-blend-mode:normal" color="#000" font-family="sans-serif" white-space="normal" overflow="visible" solid-color="#000000"/>
  <circle cx="90.437256" cy="45.124828" r="2.0427094" fill="#ffe5e5" transform="rotate(-8.592)"/>
  <circle cx="106.15161" cy="40.912914" r="4.4802094" fill="#ffe5e5" transform="rotate(-8.592)"/>
  <path fill="#f47c7c" fill-rule="evenodd" d="M78.9746 375.6667l-34.0948-50.8609L0 348.3953l29.0039 56.3642 16.0922-6.7287-22.2151-38.8037 17.6196-9.8482 22.1314 37.4264z"/>
  <path fill="#f7bcbc" fill-rule="evenodd" d="M44.4983 325.0333l34.0955 50.8611 7.2634-3.8513-33.3939-50.3419zm-21.9981 34.4208l22.2139 38.804 6.9559-4.9268-22.8701-37.4253z"/>
</svg>
