<?xml version="1.0" encoding="UTF-8" standalone="no"?>
<svg
   xmlns:dc="http://purl.org/dc/elements/1.1/"
   xmlns:cc="http://creativecommons.org/ns#"
   xmlns:rdf="http://www.w3.org/1999/02/22-rdf-syntax-ns#"
   xmlns:svg="http://www.w3.org/2000/svg"
   xmlns="http://www.w3.org/2000/svg"
   version="1.1"
   id="svg4509"
   viewBox="0 0 414.30984 388.88925"
   height="109.75319mm"
   width="116.92744mm">
  <defs
     id="defs4511">
    <clipPath
       clipPathUnits="userSpaceOnUse"
       id="clipPath11865">
      <rect
         style="opacity:1;fill:#ff00ff;fill-opacity:1;stroke:none;stroke-width:1.5;stroke-linecap:butt;stroke-linejoin:round;stroke-miterlimit:4;stroke-dasharray:none;stroke-dashoffset:0;stroke-opacity:1"
         id="rect11867"
         width="1400"
         height="400"
         x="6076"
         y="27430.361" />
    </clipPath>
  </defs>
  <metadata
     id="metadata4514">
    <rdf:RDF>
      <cc:Work
         rdf:about="">
        <dc:format>image/svg+xml</dc:format>
        <dc:type
           rdf:resource="http://purl.org/dc/dcmitype/StillImage" />
        <dc:title></dc:title>
      </cc:Work>
    </rdf:RDF>
  </metadata>
  <g
     transform="translate(-315.70217,-280.77509)"
     id="layer1">
    <g
       id="g11825"
       clip-path="url(#clipPath11865)"
       transform="translate(-6270.2431,-27160.697)">
      <g
         transform="matrix(1.1187405,0.12345905,-0.12345905,1.1187405,692.40928,16012.881)"
         id="g10972"
         clip-path="none">
        <path
           id="path10974"
           d="m 6597.1723,9568.2451 a 12.592439,7.089916 68.732279 0 0 -1.2978,0.5652 12.592439,7.089916 68.732279 0 0 -0.1481,0.1112 c -1.2928,0.5179 -13.9226,5.9444 -13.9226,5.9444 l 9.4751,23.2597 13.7628,-6.053 a 12.592439,7.089916 68.732279 0 0 1.5158,-0.5983 12.592439,7.089916 68.732279 0 0 0.6575,-15.3201 12.592439,7.089916 68.732279 0 0 -10.0427,-7.91 z"
           style="opacity:1;fill:#f5acac;fill-opacity:1;stroke:none;stroke-width:4;stroke-linecap:round;stroke-linejoin:miter;stroke-miterlimit:4;stroke-dasharray:none;stroke-dashoffset:0;stroke-opacity:1" />
        <path
           style="color:#000000;font-style:normal;font-variant:normal;font-weight:normal;font-stretch:normal;font-size:medium;line-height:normal;font-family:sans-serif;text-indent:0;text-align:start;text-decoration:none;text-decoration-line:none;text-decoration-style:solid;text-decoration-color:#000000;letter-spacing:normal;word-spacing:normal;text-transform:none;direction:ltr;block-progression:tb;writing-mode:lr-tb;baseline-shift:baseline;text-anchor:start;white-space:normal;clip-rule:nonzero;display:inline;overflow:visible;visibility:visible;opacity:1;isolation:auto;mix-blend-mode:normal;color-interpolation:sRGB;color-interpolation-filters:linearRGB;solid-color:#000000;solid-opacity:1;fill:#9f6161;fill-opacity:1;fill-rule:evenodd;stroke:none;stroke-width:16.89999962;stroke-linecap:butt;stroke-linejoin:miter;stroke-miterlimit:4;stroke-dasharray:none;stroke-dashoffset:0;stroke-opacity:1;color-rendering:auto;image-rendering:auto;shape-rendering:auto;text-rendering:auto;enable-background:accumulate"
           d="m 6674.318,9569.6573 -20.7395,2.4349 c 9.0779,65.6017 -31.9348,109.7455 -84.7128,122.5666 l 2.7063,17.2064 c 72.5749,-16.2956 110.2844,-75.5035 102.746,-142.2079 z"
           id="path10976" />
        <path
           id="path10978"
           d="m 6583.0931,9674.3737 c -0.6058,0.1223 -1.1519,0.3789 -1.6251,0.7861 -0.058,0.054 -0.1149,0.1136 -0.172,0.172 -1.6323,0.7036 -9.7543,4.5322 -9.7543,4.5322 l 19.8337,42.2845 9.5025,-4.7488 c 0.7236,-0.077 1.3667,-0.3503 1.9175,-0.8065 3.9309,-3.334 2.3429,-15.3126 -3.5467,-26.7545 -5.0733,-9.8551 -11.8288,-16.3221 -16.1538,-15.4638 z"
           style="opacity:1;fill:#f5acac;fill-opacity:1;stroke:none;stroke-width:4;stroke-linecap:round;stroke-linejoin:miter;stroke-miterlimit:4;stroke-dasharray:none;stroke-dashoffset:0;stroke-opacity:1" />
        <path
           id="path10980"
           d="m 6465.5084,9721.2229 125.0209,-36.6788 -33.7007,-8.1465 -120.5824,29.9107 z"
           style="fill:#ffe5e5;fill-opacity:1;fill-rule:evenodd;stroke:none;stroke-width:1px;stroke-linecap:butt;stroke-linejoin:miter;stroke-opacity:1" />
        <path
           style="fill:#9f6161;fill-opacity:1;fill-rule:evenodd;stroke:none;stroke-width:1px;stroke-linecap:butt;stroke-linejoin:miter;stroke-opacity:1"
           d="m 6493.2734,9652.5423 c 9.6115,18.3076 7.8049,28.0086 9.4971,43.8498 0.6008,7.6803 21.425,5.006 21.5116,-2.3665 0.6019,-17.2566 -2.1893,-31.0328 -7.7861,-50.0727 z"
           id="path10982" />
        <path
           style="fill:#f7bcbc;fill-opacity:1;fill-rule:evenodd;stroke:none;stroke-width:1px;stroke-linecap:butt;stroke-linejoin:miter;stroke-opacity:1"
           d="m 6402.9021,9607.8916 34.0911,88.1682 169.0093,-58.5919 -32.1117,-96.3656 z"
           id="path10984" />
        <circle
           style="opacity:1;fill:#f5acac;fill-opacity:1;stroke:none;stroke-width:4;stroke-linecap:round;stroke-linejoin:miter;stroke-miterlimit:4;stroke-dasharray:none;stroke-dashoffset:0;stroke-opacity:1"
           id="circle10986"
           cx="5048.4155"
           cy="10458.103"
           r="33.418617"
           transform="matrix(0.98877802,-0.14939218,0.14939218,0.98877802,0,0)" />
        <path
           style="fill:#f7bcbc;fill-opacity:1;fill-rule:evenodd;stroke:none;stroke-width:1px;stroke-linecap:butt;stroke-linejoin:miter;stroke-opacity:1"
           d="m 6465.5084,9721.2229 125.0209,-36.6788 c 13.0209,57.2303 15.4049,96.7798 15.4049,124.3721 l -109.4556,11.2771 c -6.059,-42.4068 -17.1663,-62.0977 -30.9702,-98.9723 z"
           id="path10988" />
        <path
           id="path10990"
           d="m 6402.9021,9607.8916 -26.7736,-12.6294 161.9824,-62.5032 35.7799,8.3433 z"
           style="fill:#ffe5e5;fill-opacity:1;fill-rule:evenodd;stroke:none;stroke-width:1px;stroke-linecap:butt;stroke-linejoin:miter;stroke-opacity:1" />
        <path
           id="path10992"
           d="m 6402.9021,9607.8916 34.0911,88.1682 -28.753,-4.4319 -32.1117,-96.3657 z"
           style="fill:#f47c7c;fill-opacity:1;fill-rule:evenodd;stroke:none;stroke-width:1px;stroke-linecap:butt;stroke-linejoin:miter;stroke-opacity:1" />
        <path
           id="path10994"
           d="m 6465.5084,9721.2229 -29.2622,-14.9146 c 12.3955,31.2264 16.3345,78.1933 14.9723,118.5481 l 45.5037,-4.6882 c -2.0804,-35.776 -19.5575,-76.7176 -31.2138,-98.9423 z"
           style="fill:#f47c7c;fill-opacity:1;fill-rule:evenodd;stroke:none;stroke-width:1px;stroke-linecap:butt;stroke-linejoin:miter;stroke-opacity:1" />
        <circle
           r="33.418617"
           cy="10483.322"
           cx="4938.8555"
           id="circle10996"
           style="opacity:1;fill:#f5acac;fill-opacity:1;stroke:none;stroke-width:4;stroke-linecap:round;stroke-linejoin:miter;stroke-miterlimit:4;stroke-dasharray:none;stroke-dashoffset:0;stroke-opacity:1"
           transform="matrix(0.98877802,-0.14939218,0.14939218,0.98877802,0,0)" />
        <circle
           style="opacity:1;fill:#ffe5e5;fill-opacity:1;stroke:none;stroke-width:4;stroke-linecap:round;stroke-linejoin:miter;stroke-miterlimit:4;stroke-dasharray:none;stroke-dashoffset:0;stroke-opacity:1"
           id="circle10998"
           cx="4941.0894"
           cy="10486.872"
           r="26.975157"
           transform="matrix(0.98877802,-0.14939218,0.14939218,0.98877802,0,0)" />
        <circle
           r="26.975157"
           cy="10462.409"
           cx="5048.9897"
           id="circle11000"
           style="opacity:1;fill:#ffe5e5;fill-opacity:1;stroke:none;stroke-width:4;stroke-linecap:round;stroke-linejoin:miter;stroke-miterlimit:4;stroke-dasharray:none;stroke-dashoffset:0;stroke-opacity:1"
           transform="matrix(0.98877802,-0.14939218,0.14939218,0.98877802,0,0)" />
        <circle
           style="opacity:1;fill:#9f6161;fill-opacity:1;stroke:none;stroke-width:4;stroke-linecap:round;stroke-linejoin:miter;stroke-miterlimit:4;stroke-dasharray:none;stroke-dashoffset:0;stroke-opacity:1"
           id="circle11002"
           cx="5047.0781"
           cy="10464.355"
           r="19.204311"
           transform="matrix(0.98877802,-0.14939218,0.14939218,0.98877802,0,0)" />
        <circle
           r="5.5356717"
           cy="10458.101"
           cx="5056.2676"
           id="circle11004"
           style="opacity:1;fill:#ffe5e5;fill-opacity:1;stroke:none;stroke-width:4;stroke-linecap:round;stroke-linejoin:miter;stroke-miterlimit:4;stroke-dasharray:none;stroke-dashoffset:0;stroke-opacity:1"
           transform="matrix(0.98877802,-0.14939218,0.14939218,0.98877802,0,0)" />
        <circle
           style="opacity:1;fill:#ffe5e5;fill-opacity:1;stroke:none;stroke-width:4;stroke-linecap:round;stroke-linejoin:miter;stroke-miterlimit:4;stroke-dasharray:none;stroke-dashoffset:0;stroke-opacity:1"
           id="circle11006"
           cx="5034.2588"
           cy="10463.429"
           r="2.5239375"
           transform="matrix(0.98877802,-0.14939218,0.14939218,0.98877802,0,0)" />
        <circle
           r="19.204311"
           cy="10488.449"
           cx="4939.2734"
           id="circle11008"
           style="opacity:1;fill:#9f6161;fill-opacity:1;stroke:none;stroke-width:4;stroke-linecap:round;stroke-linejoin:miter;stroke-miterlimit:4;stroke-dasharray:none;stroke-dashoffset:0;stroke-opacity:1"
           transform="matrix(0.98877802,-0.14939218,0.14939218,0.98877802,0,0)" />
        <circle
           style="opacity:1;fill:#ffe5e5;fill-opacity:1;stroke:none;stroke-width:4;stroke-linecap:round;stroke-linejoin:miter;stroke-miterlimit:4;stroke-dasharray:none;stroke-dashoffset:0;stroke-opacity:1"
           id="circle11010"
           cx="4948.4629"
           cy="10482.194"
           r="5.5356717"
           transform="matrix(0.98877802,-0.14939218,0.14939218,0.98877802,0,0)" />
        <circle
           r="2.5239375"
           cy="10487.522"
           cx="4926.4541"
           id="circle11012"
           style="opacity:1;fill:#ffe5e5;fill-opacity:1;stroke:none;stroke-width:4;stroke-linecap:round;stroke-linejoin:miter;stroke-miterlimit:4;stroke-dasharray:none;stroke-dashoffset:0;stroke-opacity:1"
           transform="matrix(0.98877802,-0.14939218,0.14939218,0.98877802,0,0)" />
        <path
           style="fill:#9f6161;fill-opacity:1;fill-rule:evenodd;stroke:none;stroke-width:1px;stroke-linecap:butt;stroke-linejoin:miter;stroke-opacity:1"
           d="m 6496.9022,9632.8977 27.4005,-9.4369 c 6.1692,26.6975 -20.1745,28.5746 -27.4005,9.4369 z"
           id="path11014" />
        <path
           style="opacity:1;fill:#f47c7c;fill-opacity:1;stroke:none;stroke-width:4;stroke-linecap:round;stroke-linejoin:miter;stroke-miterlimit:4;stroke-dasharray:none;stroke-dashoffset:0;stroke-opacity:1"
           d="m 6506.9331,9636.1715 c -2.4622,0.3756 -4.8003,1.2646 -6.7741,2.5756 5.7815,8.5095 15.8096,9.3282 21.2772,3.3751 -2.4218,-4.447 -8.3315,-6.8718 -14.5031,-5.9507 z"
           id="path11016" />
        <path
           style="opacity:1;fill:#f5acac;fill-opacity:1;stroke:none;stroke-width:4;stroke-linecap:round;stroke-linejoin:miter;stroke-miterlimit:4;stroke-dasharray:none;stroke-dashoffset:0;stroke-opacity:1"
           d="m 6399.6507,9640.9173 a 12.592439,7.089916 68.732279 0 0 -1.2976,0.565 12.592439,7.089916 68.732279 0 0 -0.148,0.1137 c -1.293,0.518 -13.9227,5.9444 -13.9227,5.9444 l 9.4752,23.2598 13.7628,-6.0532 a 12.592439,7.089916 68.732279 0 0 1.5158,-0.5981 12.592439,7.089916 68.732279 0 0 0.6573,-15.3202 12.592439,7.089916 68.732279 0 0 -10.0427,-7.9099 z"
           id="path11018" />
        <ellipse
           style="opacity:1;fill:#f47c7c;fill-opacity:1;stroke:none;stroke-width:4;stroke-linecap:round;stroke-linejoin:miter;stroke-miterlimit:4;stroke-dasharray:none;stroke-dashoffset:0;stroke-opacity:1"
           id="ellipse11020"
           cx="1678.6343"
           cy="11705.732"
           rx="7.2032709"
           ry="12.527943"
           transform="matrix(0.83278618,-0.55359478,0.42636153,0.90455284,0,0)" />
        <path
           id="path11022"
           d="m 6499.5593,9556.2073 a 6.3323124,25.363058 70.115817 0 0 -0.4471,-1.1816 6.3323124,25.363058 70.115817 0 0 -0.1394,-0.1198 c -0.3624,-1.1915 -4.5708,-12.7195 -4.5708,-12.7195 l -47.5426,17.317 4.8469,12.5177 a 6.3323124,25.363058 70.115817 0 0 0.4058,1.4004 6.3323124,25.363058 70.115817 0 0 28.1153,-4.1691 6.3323124,25.363058 70.115817 0 0 19.3306,-13.0437 z"
           style="opacity:1;fill:#f7bcbc;fill-opacity:1;stroke:none;stroke-width:4;stroke-linecap:round;stroke-linejoin:miter;stroke-miterlimit:4;stroke-dasharray:none;stroke-dashoffset:0;stroke-opacity:1" />
        <ellipse
           transform="matrix(0.67624645,0.73667547,-0.93121249,0.36447675,0,0)"
           ry="25.23485"
           rx="6.8253484"
           cy="1814.2606"
           cx="12066.88"
           id="ellipse11024"
           style="opacity:1;fill:#ffe5e5;fill-opacity:1;stroke:none;stroke-width:4;stroke-linecap:round;stroke-linejoin:miter;stroke-miterlimit:4;stroke-dasharray:none;stroke-dashoffset:0;stroke-opacity:1" />
        <path
           style="opacity:1;fill:#f7bcbc;fill-opacity:1;stroke:none;stroke-width:4;stroke-linecap:round;stroke-linejoin:miter;stroke-miterlimit:4;stroke-dasharray:none;stroke-dashoffset:0;stroke-opacity:1"
           d="m 6448.4591,9716.3537 c -0.6105,0.096 -1.1649,0.337 -1.6552,0.7201 -0.06,0.053 -0.1198,0.1088 -0.1787,0.1656 -1.6592,0.6374 -9.9286,4.1365 -9.9286,4.1365 l 18.1186,43.0473 9.6857,-4.3632 c 0.7258,-0.051 1.3795,-0.2954 1.9483,-0.7287 4.0617,-3.1733 2.9564,-15.2061 -2.4688,-26.8753 -4.6731,-10.051 -11.1634,-16.7843 -15.5193,-16.1004 z"
           id="path11026" />
        <ellipse
           style="opacity:1;fill:#f47c7c;fill-opacity:1;stroke:none;stroke-width:4;stroke-linecap:round;stroke-linejoin:miter;stroke-miterlimit:4;stroke-dasharray:none;stroke-dashoffset:0;stroke-opacity:1"
           id="ellipse11028"
           cx="1783.7189"
           cy="11955.538"
           rx="9.3322077"
           ry="23.299494"
           transform="matrix(0.78791263,-0.61578705,0.421567,0.90679726,0,0)" />
        <path
           style="color:#000000;font-style:normal;font-variant:normal;font-weight:normal;font-stretch:normal;font-size:medium;line-height:normal;font-family:sans-serif;text-indent:0;text-align:start;text-decoration:none;text-decoration-line:none;text-decoration-style:solid;text-decoration-color:#000000;letter-spacing:normal;word-spacing:normal;text-transform:none;direction:ltr;block-progression:tb;writing-mode:lr-tb;baseline-shift:baseline;text-anchor:start;white-space:normal;clip-rule:nonzero;display:inline;overflow:visible;visibility:visible;opacity:1;isolation:auto;mix-blend-mode:normal;color-interpolation:sRGB;color-interpolation-filters:linearRGB;solid-color:#000000;solid-opacity:1;fill:#9f6161;fill-opacity:1;fill-rule:evenodd;stroke:none;stroke-width:16.89999962;stroke-linecap:butt;stroke-linejoin:miter;stroke-miterlimit:4;stroke-dasharray:none;stroke-dashoffset:0;stroke-opacity:1;color-rendering:auto;image-rendering:auto;shape-rendering:auto;text-rendering:auto;enable-background:accumulate"
           d="m 6438.5638,9734.6192 c -39.6313,10.5081 -90.5439,30.8658 -64.3151,110.9692 l 20.7772,0.9984 c -32.5754,-77.5599 23.1797,-85.6159 52.8614,-93.9542 2.9853,-2.8878 -1.0857,-19.1866 -9.3235,-18.0137 z"
           id="path11030" />
        <path
           style="fill:#f7bcbc;fill-opacity:1;fill-rule:evenodd;stroke:none;stroke-width:1px;stroke-linecap:butt;stroke-linejoin:miter;stroke-opacity:1"
           d="m 6617.1229,9516.6773 c 0.96,0.192 15.7448,59.2163 15.7448,59.2163 l 61.2005,-9.3258 -7.5384,-62.9998 -21.171,1.6767 7.7265,44.0436 -24.2894,4.2273 -8.2479,-42.6911 z"
           id="path11032" />
        <path
           style="fill:#ffe5e5;fill-opacity:1;fill-rule:evenodd;stroke:none;stroke-width:1px;stroke-linecap:butt;stroke-linejoin:miter;stroke-opacity:1"
           d="m 6685.5879,9497.2079 -21.8423,1.419 1.7471,7.317 21.0798,-1.9644 z m -46.414,6.6606 -23.8092,7.0998 1.7496,5.8979 23.37,-5.8979 z m 32.7091,38.443 -24.299,5.2416 1.3104,6.1152 24.3545,-4.3125 z"
           id="path11034" />
        <g
           id="g11036"
           transform="matrix(1.2355832,0,0,1.2355832,-1532.3709,-2307.671)">
          <path
             id="path11038"
             d="m 6469.3203,9558.4551 c -1.7156,0.1177 -3.5918,0.5508 -5.6465,1.2988 l -0.043,0.016 -6.8594,3.1035 -0.043,0.024 c -4.0627,2.2479 -6.3707,5.1281 -7.1523,8.3574 -0.7817,3.2293 -0.077,6.6527 1.3535,10.1055 2.8603,6.9055 8.6918,14.1708 13.0996,20.8691 l 2.0781,-1.3672 c -4.5027,-6.8425 -10.2456,-14.0957 -12.8789,-20.4531 -1.3166,-3.1787 -1.8386,-6.0737 -1.2344,-8.5703 0.6033,-2.4926 2.2944,-4.7434 5.9239,-6.7559 l 6.625,-2.9941 c 3.7693,-1.3692 6.4967,-1.4709 8.6152,-0.6992 2.1223,0.773 3.802,2.4706 5.334,5.1738 3.064,5.4065 5.2244,14.6218 8.6445,25.8301 l 2.3789,-0.7266 c -3.3924,-11.1174 -5.4581,-20.3285 -8.8594,-26.3301 -1.7006,-3.0007 -3.8116,-5.2506 -6.6464,-6.2832 -1.4174,-0.5162 -2.9738,-0.7153 -4.6895,-0.5976 z m 8.6895,21.3926 -2.4844,0.1289 0.7324,14.1992 2.4844,-0.1289 -0.7324,-14.1992 z m -15.1778,2.625 -1.8789,1.6289 11.1074,12.8242 1.879,-1.6289 -11.1075,-12.8242 z"
             style="color:#000000;font-style:normal;font-variant:normal;font-weight:normal;font-stretch:normal;font-size:medium;line-height:normal;font-family:sans-serif;text-indent:0;text-align:start;text-decoration:none;text-decoration-line:none;text-decoration-style:solid;text-decoration-color:#000000;letter-spacing:normal;word-spacing:normal;text-transform:none;direction:ltr;block-progression:tb;writing-mode:lr-tb;baseline-shift:baseline;text-anchor:start;white-space:normal;clip-rule:nonzero;display:inline;overflow:visible;visibility:visible;opacity:1;isolation:auto;mix-blend-mode:normal;color-interpolation:sRGB;color-interpolation-filters:linearRGB;solid-color:#000000;solid-opacity:1;fill:#f7bcbc;fill-opacity:1;fill-rule:evenodd;stroke:none;stroke-width:2.48689175;stroke-linecap:butt;stroke-linejoin:miter;stroke-miterlimit:4;stroke-dasharray:none;stroke-dashoffset:0;stroke-opacity:1;color-rendering:auto;image-rendering:auto;shape-rendering:auto;text-rendering:auto;enable-background:accumulate" />
          <circle
             r="2.0427094"
             cy="10432.279"
             cx="4954.3555"
             id="circle11040"
             style="opacity:1;fill:#ffe5e5;fill-opacity:1;stroke:none;stroke-width:4;stroke-linecap:round;stroke-linejoin:miter;stroke-miterlimit:4;stroke-dasharray:none;stroke-dashoffset:0;stroke-opacity:1"
             transform="matrix(0.98877802,-0.14939218,0.14939218,0.98877802,0,0)" />
          <circle
             r="4.4802094"
             cy="10428.067"
             cx="4970.0698"
             id="circle11042"
             style="opacity:1;fill:#ffe5e5;fill-opacity:1;stroke:none;stroke-width:4;stroke-linecap:round;stroke-linejoin:miter;stroke-miterlimit:4;stroke-dasharray:none;stroke-dashoffset:0;stroke-opacity:1"
             transform="matrix(0.98877802,-0.14939218,0.14939218,0.98877802,0,0)" />
        </g>
        <path
           style="fill:#f47c7c;fill-opacity:1;fill-rule:evenodd;stroke:none;stroke-width:1px;stroke-linecap:butt;stroke-linejoin:miter;stroke-opacity:1"
           d="m 6433.4999,9872.8746 -34.0948,-50.8609 -44.8798,23.5895 29.0039,56.3642 16.0922,-6.7287 -22.2151,-38.8037 17.6196,-9.8482 22.1314,37.4264 z"
           id="path11044" />
        <path
           id="path11046"
           d="m 6399.0236,9822.2412 34.0955,50.8611 7.2634,-3.8513 -33.3939,-50.3419 z m -21.9981,34.4208 22.2139,38.804 6.9559,-4.9268 -22.8701,-37.4253 z"
           style="fill:#f7bcbc;fill-opacity:1;fill-rule:evenodd;stroke:none;stroke-width:1px;stroke-linecap:butt;stroke-linejoin:miter;stroke-opacity:1" />
      </g>
    </g>
  </g>
</svg>
